<?xml version="1.0" standalone="no"?>
<!DOCTYPE svg PUBLIC "-//W3C//DTD SVG 20010904//EN"
 "http://www.w3.org/TR/2001/REC-SVG-20010904/DTD/svg10.dtd">
<svg version="1.0" xmlns="http://www.w3.org/2000/svg"
 width="2304.000000pt" height="1824.000000pt" viewBox="0 0 2304.000000 1824.000000"
 preserveAspectRatio="xMidYMid meet">

<g transform="translate(0.000000,1824.000000) scale(0.100000,-0.100000)"
fill="#000000" stroke="none">
<path d="M14173 16443 c9 -2 23 -2 30 0 6 3 -1 5 -18 5 -16 0 -22 -2 -12 -5z"/>
<path d="M14233 16433 c9 -2 23 -2 30 0 6 3 -1 5 -18 5 -16 0 -22 -2 -12 -5z"/>
<path d="M14398 16403 c7 -3 16 -2 19 1 4 3 -2 6 -13 5 -11 0 -14 -3 -6 -6z"/>
<path d="M14661 16356 c3 -3 75 -20 160 -37 85 -16 170 -34 190 -39 42 -11
258 -50 278 -50 40 0 -18 13 -269 63 -306 61 -368 72 -359 63z"/>
<path d="M14765 16270 c-3 -5 1 -10 9 -10 9 0 16 5 16 10 0 6 -4 10 -9 10 -6
0 -13 -4 -16 -10z"/>
<path d="M11260 16259 c-368 -18 -622 -35 -880 -59 -245 -23 -679 -72 -830
-95 -172 -26 -474 -75 -525 -85 -27 -6 -133 -26 -235 -46 -322 -62 -564 -116
-825 -186 -82 -21 -166 -43 -185 -48 -159 -38 -612 -173 -840 -250 -255 -86
-414 -141 -435 -150 -11 -5 -51 -21 -90 -35 -81 -31 -241 -93 -270 -105 -25
-10 -353 -148 -380 -159 -49 -21 -161 -73 -450 -210 -130 -62 -112 -53 -250
-126 -112 -59 -138 -73 -279 -151 -43 -24 -81 -44 -84 -44 -3 0 -22 -11 -41
-24 -30 -20 -242 -147 -436 -261 -87 -51 -315 -207 -315 -215 0 -4 -10 -11
-22 -14 -13 -3 -49 -25 -80 -48 -31 -24 -82 -61 -113 -83 -143 -102 -264 -194
-372 -282 -39 -32 -86 -69 -103 -83 -18 -14 -42 -34 -54 -46 -11 -12 -52 -47
-91 -79 -231 -193 -583 -541 -865 -856 -8 -9 -32 -36 -52 -60 -20 -24 -70 -83
-111 -131 -40 -48 -104 -130 -141 -182 -37 -52 -73 -100 -81 -106 -8 -7 -15
-17 -15 -22 0 -5 -24 -41 -53 -81 -29 -40 -75 -108 -102 -152 -26 -44 -69
-112 -94 -150 -25 -39 -53 -84 -61 -100 -8 -17 -17 -32 -20 -35 -3 -3 -12 -18
-20 -35 -8 -16 -41 -77 -72 -134 -32 -57 -58 -106 -58 -110 0 -3 -16 -35 -35
-71 -19 -36 -37 -72 -40 -80 -4 -8 -15 -35 -27 -60 -55 -121 -168 -408 -200
-510 -16 -52 -33 -104 -38 -115 -5 -11 -14 -40 -20 -65 -6 -25 -21 -79 -32
-120 -11 -41 -24 -95 -30 -120 -5 -25 -14 -61 -18 -80 -36 -144 -69 -348 -99
-605 -46 -402 -20 -981 63 -1385 30 -143 56 -257 70 -305 8 -27 26 -91 40
-142 29 -103 130 -393 171 -493 114 -276 193 -439 328 -675 22 -38 57 -99 77
-135 51 -90 236 -368 312 -470 106 -142 306 -389 409 -507 210 -237 549 -574
759 -753 47 -40 96 -82 110 -94 374 -322 928 -709 1465 -1024 438 -256 954
-506 1540 -746 77 -32 149 -62 160 -67 117 -51 729 -260 1035 -353 730 -220
1687 -422 2420 -510 1148 -139 1958 -165 2980 -96 392 27 966 88 1234 131 877
141 1143 197 1946 413 74 20 169 47 210 60 41 14 122 39 180 56 58 18 130 40
160 50 152 51 417 143 435 150 11 5 76 29 145 54 207 74 612 236 760 303 30
14 75 34 99 44 329 143 851 418 1256 662 348 209 769 496 1032 702 28 22 80
62 115 90 34 27 126 103 202 170 76 66 159 137 184 158 142 119 566 551 713
727 65 76 226 276 252 311 9 13 60 83 113 154 105 143 204 288 235 344 10 20
36 63 57 96 65 103 229 406 293 541 167 354 296 731 374 1099 14 66 29 140 35
165 15 75 28 175 50 389 36 369 22 806 -41 1191 -22 141 -94 475 -108 505 -6
11 -17 50 -25 86 -20 81 -102 322 -157 462 -86 217 -203 464 -336 707 -49 90
-53 97 -96 163 -20 31 -37 59 -37 62 0 14 -319 474 -367 531 -10 11 -27 33
-38 48 -11 16 -24 33 -30 40 -5 6 -37 44 -69 85 -198 248 -520 579 -880 906
-48 44 -98 86 -109 94 -12 8 -54 42 -93 76 -90 77 -107 90 -179 145 -33 25
-65 50 -71 55 -6 6 -24 20 -40 32 -16 11 -83 61 -149 110 -66 50 -140 102
-164 118 -25 15 -49 31 -55 36 -40 33 -339 235 -380 256 -17 9 -67 39 -111 68
-44 28 -136 85 -205 126 -137 81 -134 79 -235 134 -38 21 -99 54 -135 75 -93
53 -336 176 -560 283 -201 95 -313 147 -321 147 -4 0 -50 20 -101 44 -85 41
-244 106 -488 201 -129 51 -435 158 -605 212 -77 24 -149 48 -160 53 -11 5
-67 23 -125 40 -58 17 -148 44 -201 60 -54 16 -157 45 -230 64 -74 19 -208 54
-299 79 -145 40 -272 70 -510 123 -36 8 -121 28 -190 44 -245 57 -689 132
-1010 170 -212 25 -339 41 -370 45 -124 19 -691 58 -1060 74 -240 10 -1001 10
-1210 0z m1570 -493 c319 -18 374 -23 855 -77 376 -41 636 -81 965 -148 226
-46 246 -50 645 -148 426 -105 456 -112 469 -120 6 -4 16 -8 21 -8 6 -1 17 -4
25 -7 8 -3 40 -11 70 -18 119 -26 307 -80 475 -136 55 -18 161 -52 235 -75 74
-23 142 -46 150 -51 8 -5 92 -35 185 -67 94 -32 199 -70 235 -84 36 -13 94
-36 130 -49 244 -94 316 -123 356 -144 25 -13 49 -24 54 -24 5 0 51 -20 102
-44 210 -99 269 -126 274 -126 7 0 354 -174 439 -220 147 -79 427 -237 498
-281 43 -27 81 -49 84 -49 8 0 413 -267 533 -353 122 -86 416 -309 455 -344
11 -10 36 -30 55 -44 19 -15 47 -37 61 -50 14 -13 45 -40 68 -59 228 -189 548
-500 735 -715 48 -55 97 -111 110 -125 44 -48 192 -236 255 -325 36 -50 67
-92 70 -95 6 -5 80 -116 163 -245 116 -179 305 -525 350 -640 11 -27 30 -72
43 -100 13 -27 34 -75 45 -105 12 -30 28 -68 36 -85 26 -55 125 -349 144 -425
10 -41 23 -88 29 -103 17 -44 88 -418 105 -555 9 -68 18 -127 20 -130 2 -4 9
-108 16 -231 18 -320 -1 -665 -55 -979 -15 -86 -18 -104 -51 -252 -36 -164
-164 -550 -252 -760 -184 -439 -510 -972 -817 -1336 -19 -22 -49 -59 -67 -81
-117 -146 -174 -208 -410 -445 -237 -238 -359 -353 -468 -443 -20 -16 -72 -60
-116 -96 -43 -37 -135 -110 -204 -163 -69 -53 -141 -109 -160 -124 -122 -96
-397 -280 -665 -445 -841 -520 -1629 -876 -2735 -1236 -296 -96 -952 -273
-1230 -331 -52 -11 -133 -29 -180 -40 -95 -22 -149 -33 -425 -84 -576 -106
-1016 -164 -1645 -215 -395 -32 -744 -45 -1235 -45 -660 1 -994 24 -1855 130
-502 61 -1003 155 -1605 299 -204 49 -220 53 -570 151 -793 223 -1660 570
-2365 946 -129 69 -251 134 -270 145 -19 11 -62 36 -95 55 -584 337 -1105 707
-1542 1097 -131 116 -526 507 -619 611 -188 212 -372 448 -552 708 -183 265
-414 684 -502 912 -18 47 -41 104 -51 127 -61 138 -209 640 -239 813 -47 269
-58 345 -70 515 -15 188 -14 475 0 693 7 92 13 169 15 172 2 3 8 44 15 90 27
209 114 610 131 610 5 0 9 12 9 28 0 27 22 109 39 147 5 11 17 47 26 80 19 68
41 127 61 167 8 14 14 33 14 42 0 9 5 16 10 16 6 0 10 7 10 15 0 14 77 201 99
242 6 10 18 36 27 58 10 22 21 42 24 45 3 3 12 21 20 40 8 19 34 71 58 115 24
44 58 105 75 135 143 262 431 670 651 923 103 120 194 216 386 407 264 264
402 386 685 611 50 39 100 80 112 90 13 10 49 37 80 59 32 23 85 61 118 86 97
72 116 85 246 170 68 45 142 95 164 111 22 16 56 38 75 48 19 11 37 22 40 25
7 8 192 120 265 161 33 18 66 39 73 46 7 7 18 13 23 13 5 0 28 12 52 27 81 51
354 196 532 283 384 187 489 236 560 263 22 8 69 28 105 45 36 16 119 50 185
76 66 26 146 59 177 72 222 95 1014 361 1308 438 52 14 120 32 150 41 278 80
906 214 1360 290 714 119 1288 176 2120 209 205 8 1137 -4 1390 -18z"/>
<path d="M11545 15604 c-474 -20 -1021 -64 -1365 -110 -63 -8 -180 -23 -260
-34 -683 -89 -1585 -292 -2300 -517 -248 -78 -294 -93 -495 -168 -378 -139
-631 -240 -798 -319 -43 -20 -80 -36 -82 -36 -7 0 -286 -132 -450 -212 -215
-106 -671 -360 -755 -421 -14 -10 -99 -64 -190 -121 -253 -158 -445 -292 -719
-501 -14 -11 -33 -27 -42 -35 -8 -8 -44 -37 -78 -65 -213 -170 -329 -275 -580
-526 -216 -215 -284 -289 -447 -489 -140 -171 -369 -487 -463 -640 -11 -18
-107 -184 -150 -260 -88 -154 -217 -428 -284 -600 -133 -344 -237 -770 -271
-1105 -3 -27 -10 -93 -16 -145 -5 -52 -12 -185 -14 -295 -6 -314 15 -565 71
-855 68 -354 147 -615 292 -967 28 -68 163 -341 211 -429 306 -552 626 -970
1111 -1451 361 -356 661 -605 1079 -895 569 -395 1247 -769 1870 -1031 47 -19
130 -54 184 -77 516 -217 1217 -445 1836 -598 894 -221 1685 -344 2675 -414
363 -26 1309 -15 1820 22 701 50 1450 159 2165 316 828 182 1784 490 2448 790
29 13 80 36 115 50 125 52 648 315 837 422 1000 562 1729 1141 2366 1881 164
191 364 461 493 666 24 39 56 88 71 110 32 47 184 325 222 405 84 178 168 372
183 420 4 14 13 39 20 55 34 81 111 327 146 467 64 259 104 509 120 763 13
191 5 581 -15 750 -16 136 -78 484 -102 572 -8 32 -24 92 -35 133 -39 151
-147 462 -200 577 -16 34 -29 64 -29 67 0 6 -96 212 -112 241 -6 11 -35 65
-65 121 -29 56 -71 130 -93 165 -22 35 -49 82 -61 104 -12 22 -38 65 -59 95
-20 30 -55 81 -76 114 -47 70 -94 137 -134 191 -17 22 -38 51 -48 65 -26 40
-124 163 -143 182 -10 10 -31 37 -48 60 -16 24 -37 50 -48 59 -10 9 -29 29
-44 45 -77 87 -225 250 -231 254 -4 3 -80 77 -170 165 -90 88 -219 209 -288
270 -69 60 -127 112 -130 115 -3 3 -34 28 -69 55 -35 28 -82 66 -105 86 -23
19 -66 53 -96 74 -30 22 -57 42 -60 45 -27 30 -470 342 -525 370 -5 3 -55 35
-110 71 -55 36 -120 77 -145 90 -25 13 -47 26 -50 29 -8 8 -89 60 -94 60 -3 0
-62 34 -133 76 -70 41 -150 86 -178 99 -27 13 -108 55 -179 94 -71 39 -139 74
-150 77 -12 4 -68 30 -126 59 -115 58 -258 125 -267 125 -3 0 -33 13 -67 30
-168 82 -836 343 -1105 431 -86 29 -214 71 -286 95 -71 23 -195 61 -275 83
-80 22 -188 53 -240 69 -108 34 -546 145 -755 191 -229 52 -268 60 -315 66
-25 3 -65 10 -90 15 -320 69 -1069 157 -1670 195 -228 15 -1151 28 -1355 19z
m2534 -943 c12 -8 7 -30 -26 -133 -22 -67 -47 -148 -56 -178 -9 -30 -44 -147
-78 -260 -34 -113 -71 -243 -83 -290 -13 -47 -40 -148 -61 -225 -63 -228 -52
-277 46 -195 l50 42 20 -20 c10 -12 19 -28 19 -36 0 -20 -183 -175 -255 -216
-68 -39 -144 -46 -188 -17 -43 28 -40 54 38 322 14 50 40 142 57 205 17 63 39
142 49 175 46 148 100 347 133 491 14 62 29 119 32 128 4 10 1 16 -7 17 -8 0
-41 1 -74 2 l-60 2 3 30 c2 17 5 31 6 32 1 1 62 18 136 38 73 19 156 48 184
64 53 30 91 37 115 22z m-2368 -692 c-2 -365 -1 -674 3 -687 8 -25 73 -62 110
-62 35 0 48 -27 31 -66 l-13 -30 -78 9 c-44 5 -184 6 -311 3 l-233 -5 0 27 c0
36 14 55 42 59 56 9 102 26 123 47 23 23 30 72 37 266 l2 55 -199 2 -200 3
-18 -25 c-73 -101 -187 -281 -187 -296 0 -22 6 -26 71 -43 56 -14 54 -11 50
-73 -1 -17 -19 -18 -231 -18 l-230 0 0 38 c0 22 5 39 13 41 73 21 105 34 128
54 33 27 170 211 293 392 24 36 54 76 66 90 12 14 52 68 88 120 36 52 95 136
132 185 59 80 109 150 175 245 21 31 28 41 124 186 33 49 71 100 84 112 21 20
96 43 122 37 7 -1 9 -228 6 -666z m-1189 645 c65 -31 103 -119 95 -222 -6 -85
-26 -139 -85 -227 -66 -99 -262 -295 -296 -295 -2 0 -14 16 -26 35 l-22 35 76
84 c42 46 76 88 76 93 0 5 11 20 25 33 57 53 54 136 -6 202 -17 18 -40 43 -51
55 l-21 22 51 63 c56 70 109 123 132 131 8 3 16 6 17 6 1 1 17 -6 35 -15z
m4036 -20 c72 -50 71 -182 -2 -262 -23 -26 -78 -52 -109 -52 -28 0 -83 39 -96
68 -33 72 12 211 79 244 43 22 98 23 128 2z m-4900 -35 c-9 -35 -10 -35 -94
-51 -105 -20 -130 -36 -145 -90 -6 -24 -24 -83 -40 -133 -15 -49 -44 -154 -63
-232 -20 -78 -47 -177 -60 -220 -68 -221 -150 -549 -141 -571 4 -11 45 -13
223 -10 184 3 222 6 253 21 38 19 117 105 184 202 65 93 65 93 113 88 23 -3
42 -9 42 -13 0 -5 -23 -57 -51 -116 -53 -115 -77 -170 -104 -246 -10 -26 -22
-49 -29 -51 -6 -2 -150 -1 -321 3 -340 8 -758 5 -791 -5 -17 -5 -22 -2 -26 17
-8 47 -1 53 97 77 52 12 98 28 103 34 6 7 20 48 32 92 40 150 101 370 125 455
14 47 36 130 49 185 13 55 45 174 70 265 58 210 58 214 4 234 -24 9 -63 20
-88 24 -25 4 -44 11 -42 15 1 4 2 19 2 35 l0 27 353 0 354 0 -9 -36z m2845
-160 c12 -7 23 -13 25 -14 2 -2 -12 -54 -32 -116 -19 -63 -36 -125 -38 -139
l-3 -25 113 -3 c80 -2 112 -6 112 -15 0 -7 -14 -33 -30 -59 l-30 -48 -99 0
-99 0 -16 -52 c-8 -29 -30 -107 -47 -173 -17 -66 -41 -160 -54 -208 -34 -128
-41 -200 -21 -216 28 -24 59 -9 144 71 32 29 34 30 47 12 24 -32 27 -54 11
-79 -16 -24 -144 -131 -181 -151 -98 -53 -129 -65 -171 -70 -86 -9 -144 37
-144 116 0 35 35 182 90 375 15 55 42 156 60 225 18 69 35 131 38 138 3 9 -14
12 -68 12 l-72 0 7 33 c10 43 6 40 78 75 90 44 198 145 313 290 28 35 35 37
67 21z m854 -290 c70 -44 94 -158 53 -254 -51 -120 -234 -236 -442 -280 -76
-17 -78 -18 -84 -51 -6 -35 7 -129 25 -176 17 -44 67 -70 120 -63 47 5 131 48
192 96 20 16 41 29 47 29 12 0 42 -45 42 -63 0 -22 -150 -137 -233 -179 -135
-69 -243 -75 -331 -16 -191 126 -155 521 69 766 74 82 174 151 265 184 64 24
76 26 164 27 64 1 85 -3 113 -20z m1117 2 c14 -16 17 -33 13 -88 -2 -37 -9
-84 -14 -103 -6 -19 -38 -129 -72 -245 -62 -208 -80 -323 -55 -332 6 -2 34 14
62 36 l50 40 23 -25 24 -25 -65 -62 c-134 -128 -223 -184 -308 -194 -41 -4
-50 -2 -71 21 -22 23 -23 31 -18 88 4 35 20 104 36 153 30 94 76 242 110 360
25 84 31 156 14 162 -7 2 -32 -14 -56 -36 -24 -23 -47 -41 -50 -41 -14 0 -37
48 -31 63 3 9 31 35 62 58 32 24 59 46 62 49 3 4 39 29 80 56 135 88 173 100
204 65z m861 -11 c73 -45 91 -112 59 -221 -21 -73 -119 -170 -219 -218 -94
-46 -190 -78 -253 -87 -61 -8 -68 -21 -59 -114 10 -116 60 -180 139 -180 40 0
124 38 190 85 56 41 59 41 83 15 25 -28 11 -52 -73 -118 -137 -108 -305 -168
-398 -143 -93 25 -161 103 -184 210 -15 74 -8 221 16 301 30 100 129 262 198
322 17 14 45 38 61 52 126 110 341 157 440 96z m535 20 c5 0 14 -9 19 -19 11
-21 6 -43 -69 -300 -26 -88 -38 -147 -33 -152 6 -6 37 46 82 136 52 104 90
167 137 223 85 100 121 119 219 113 46 -3 46 -12 0 -149 -24 -72 -46 -136 -50
-141 -7 -12 -35 -3 -35 11 0 17 -28 38 -52 40 -65 5 -145 -90 -244 -291 -57
-116 -102 -244 -129 -362 l-16 -77 -107 -7 c-59 -4 -115 -9 -126 -10 -22 -4
-23 -11 34 190 40 143 71 255 126 463 20 73 23 97 13 108 -20 24 -42 16 -82
-31 -34 -39 -41 -43 -58 -32 -10 6 -19 17 -19 23 0 20 113 134 163 165 27 16
61 41 76 55 27 26 107 56 129 48 8 -2 18 -4 22 -4z m-4457 -2203 c1 -313 5
-429 14 -438 9 -9 22 -9 52 -2 33 9 41 8 46 -5 3 -9 0 -21 -7 -27 -24 -21
-196 -87 -208 -80 -8 5 -10 21 -6 46 3 22 3 39 0 39 -4 0 -23 -15 -44 -34 -23
-20 -61 -41 -96 -51 -55 -16 -61 -16 -113 2 -92 30 -150 108 -172 231 -20 104
16 229 90 319 68 83 189 121 281 89 25 -9 49 -16 54 -16 4 0 7 47 4 104 -4
123 -13 141 -70 133 -21 -3 -41 -1 -44 5 -10 15 23 44 66 57 22 6 63 23 92 36
29 13 54 23 56 21 2 -2 4 -195 5 -429z m1275 -479 c7 -7 27 -18 45 -24 18 -6
32 -17 32 -25 0 -11 -28 -14 -150 -14 -167 0 -187 9 -105 48 l45 22 8 125 c4
69 5 240 3 380 -4 231 -6 256 -23 268 -11 8 -31 11 -51 8 -29 -4 -33 -2 -30
16 2 16 27 31 103 63 l100 43 5 -449 c4 -348 8 -451 18 -461z m-718 562 c49
-25 75 -57 95 -117 17 -55 14 -103 -9 -122 -7 -6 -86 -12 -192 -13 l-179 -3 3
-60 c5 -84 38 -161 85 -199 35 -28 46 -31 105 -31 70 1 107 15 150 55 27 26
52 20 52 -12 -1 -24 -88 -97 -157 -132 -73 -36 -204 -5 -266 63 -70 78 -102
222 -76 343 25 118 125 228 227 249 50 10 119 1 162 -21z m1226 -1 c26 -12 53
-36 66 -57 22 -36 23 -45 23 -260 0 -187 2 -224 15 -232 23 -15 39 -12 67 10
30 23 43 25 43 7 0 -20 -71 -84 -111 -101 -33 -14 -38 -13 -67 4 -17 11 -34
31 -38 45 -7 28 -16 31 -36 12 -53 -53 -144 -80 -207 -61 -76 22 -111 73 -111
162 0 91 58 145 239 223 l101 44 0 42 c0 78 -40 125 -106 125 -49 0 -99 -36
-136 -98 -43 -71 -63 -69 -60 6 2 30 5 62 8 71 4 15 93 61 139 72 52 12 130 6
171 -14z m-5620 -290 c150 -9 404 -45 504 -70 262 -66 555 -186 535 -219 -3
-4 4 -6 15 -3 11 3 20 0 20 -6 0 -6 7 -11 16 -11 16 0 136 -86 142 -102 2 -4
8 -8 14 -8 15 0 111 -95 173 -170 163 -201 256 -457 285 -790 12 -140 8 -212
-26 -410 -73 -419 -310 -764 -716 -1038 -177 -121 -527 -262 -803 -326 -108
-25 -288 -54 -415 -67 -63 -7 -116 -14 -118 -15 -7 -4 115 -179 194 -278 22
-28 50 -68 63 -89 13 -21 28 -43 34 -50 26 -27 85 -103 95 -124 7 -12 19 -28
27 -36 8 -9 41 -51 72 -95 32 -44 87 -117 122 -163 36 -46 78 -102 95 -124 17
-22 34 -42 37 -45 6 -5 105 -137 154 -204 41 -57 312 -419 323 -431 5 -6 17
-24 28 -40 10 -17 21 -32 24 -35 3 -3 19 -23 36 -45 16 -22 34 -46 41 -55 7
-8 62 -80 124 -160 221 -288 360 -425 506 -499 185 -94 385 -80 560 40 l42 29
37 -47 c21 -27 42 -53 47 -60 28 -39 -226 -223 -426 -308 -53 -23 -238 -62
-328 -70 -140 -12 -335 27 -473 96 -105 52 -270 175 -362 271 -94 98 -278 330
-438 554 -27 38 -79 110 -116 159 -36 50 -88 121 -115 159 -28 37 -75 103
-106 145 -85 116 -251 348 -278 389 -13 21 -59 82 -101 137 -43 55 -115 154
-162 220 -73 103 -144 201 -361 498 -20 29 -53 75 -72 102 -84 121 -143 205
-187 264 -27 35 -48 73 -48 85 0 11 -4 16 -8 11 -4 -6 -12 -11 -19 -10 -16 0
-30 15 -14 15 7 0 10 4 7 9 -3 4 50 6 117 3 265 -10 735 -6 862 6 251 25 367
48 545 109 263 89 456 242 591 467 125 209 189 470 189 769 0 343 -84 633
-252 867 -188 262 -517 469 -848 534 -41 8 -111 20 -155 27 -109 17 -567 18
-665 1 -236 -39 -327 -58 -347 -70 -54 -33 -64 -267 -71 -1592 -14 -2404 -1
-3345 49 -3723 5 -43 13 -84 15 -92 3 -8 38 -21 77 -30 127 -29 408 -83 542
-104 200 -32 185 -27 185 -71 0 -20 -3 -52 -7 -70 l-6 -33 -101 7 c-56 4 -137
9 -181 12 -44 3 -136 9 -205 15 -69 6 -344 13 -611 16 -517 6 -750 -2 -1159
-38 -166 -14 -151 -21 -148 63 3 71 3 71 33 75 203 26 662 113 716 136 l35 14
12 104 c44 389 51 811 46 2789 -4 1699 -6 1874 -29 2220 -16 241 -28 299 -66
317 -45 22 -189 52 -612 129 -91 16 -98 19 -93 38 3 12 6 42 6 69 l0 47 38 0
c20 0 64 -4 97 -10 33 -5 154 -19 269 -30 336 -34 1023 -28 1391 10 95 10 406
37 490 43 120 8 425 6 571 -4z m7434 -1690 c145 -15 298 -38 370 -56 485 -117
817 -333 1017 -663 42 -69 93 -174 93 -190 0 -6 4 -18 9 -28 14 -26 48 -157
67 -257 27 -140 25 -417 -4 -565 -62 -320 -193 -577 -403 -791 -174 -177 -311
-275 -529 -382 -315 -154 -648 -242 -1007 -266 -62 -4 -115 -10 -118 -13 -3
-3 20 -42 52 -88 32 -45 65 -92 73 -104 22 -32 184 -252 240 -326 27 -36 96
-126 152 -200 57 -74 117 -154 133 -176 96 -134 670 -888 865 -1135 302 -384
481 -518 695 -519 117 0 248 42 331 105 18 14 35 25 37 25 10 0 87 -110 87
-123 0 -34 -231 -206 -343 -256 -173 -78 -315 -105 -502 -98 -195 7 -323 46
-475 142 -118 76 -234 181 -363 330 -59 68 -488 639 -739 985 -34 47 -78 108
-99 135 -20 28 -76 106 -125 175 -49 68 -129 179 -179 246 -49 68 -108 148
-130 179 -22 31 -121 168 -220 304 -99 136 -184 255 -190 263 -5 9 -49 69 -97
135 -48 66 -95 136 -104 156 -14 30 -22 36 -38 31 -48 -15 -46 15 -46 -753 0
-1201 28 -1883 78 -1933 10 -10 254 -62 502 -108 91 -17 191 -35 223 -42 l57
-11 0 -73 0 -74 -42 5 c-160 19 -567 46 -863 56 -275 10 -414 10 -646 1 -259
-11 -379 -18 -777 -47 l-83 -6 3 68 3 68 35 6 c370 66 664 123 716 140 31 10
31 10 43 112 45 392 46 458 46 2577 -1 2007 -3 2172 -36 2540 -16 179 -23 204
-67 224 -20 9 -82 25 -137 36 -55 10 -143 28 -195 40 -52 12 -156 31 -230 43
l-135 22 -3 73 c-2 39 -2 72 0 72 15 0 304 -32 357 -40 308 -44 1211 -33 1681
20 46 5 174 13 285 16 110 4 202 9 205 11 8 7 362 -6 470 -18z m-4549 -1218
c-4 -9 -22 -63 -39 -121 -17 -58 -34 -113 -37 -122 -7 -16 2 -18 93 -18 62 0
103 -4 108 -11 3 -6 -7 -30 -24 -52 l-30 -42 -89 -1 -88 0 -13 -39 c-7 -21
-38 -137 -68 -259 -71 -280 -72 -334 -7 -307 31 12 113 87 113 102 0 20 18 7
36 -26 l18 -35 -39 -41 c-64 -68 -86 -86 -159 -135 -59 -40 -78 -47 -131 -52
-107 -8 -141 34 -124 153 14 99 84 376 155 618 5 15 -2 17 -55 17 -34 0 -61 2
-61 4 0 21 26 67 41 71 60 19 229 176 296 275 30 43 33 46 72 42 34 -3 39 -7
32 -21z m-916 -254 c8 -12 15 -33 15 -47 0 -26 -32 -155 -90 -360 -54 -193
-60 -220 -60 -255 0 -19 3 -36 8 -38 4 -3 27 3 52 12 55 20 115 92 190 227 68
123 96 192 134 334 l31 115 59 5 c32 3 60 2 62 -2 3 -4 0 -25 -5 -45 -5 -21
-13 -123 -17 -228 -5 -140 -12 -216 -29 -290 -24 -108 -23 -129 6 -120 17 6
19 1 19 -47 l0 -54 -86 -58 c-91 -61 -144 -77 -183 -57 -17 10 -21 21 -21 62
0 50 25 164 54 247 8 23 12 42 8 42 -4 0 -34 -41 -67 -91 -129 -193 -271 -290
-382 -260 -57 16 -78 53 -77 141 1 64 26 170 100 421 51 173 47 188 -34 132
-50 -36 -52 -36 -72 -18 -11 10 -20 23 -20 29 1 22 198 176 258 202 82 36 123
36 147 1z m-661 2 c66 -24 139 -99 158 -162 7 -23 13 -89 13 -147 0 -89 -4
-118 -28 -186 -74 -216 -237 -383 -403 -414 -176 -33 -321 41 -361 185 -32
114 -20 291 28 389 10 22 19 43 19 48 0 21 108 153 158 195 56 46 153 97 202
106 67 12 161 6 214 -14z m2298 5 c39 -8 86 -60 93 -103 8 -50 -11 -128 -42
-173 -14 -21 -53 -60 -87 -88 -82 -67 -176 -106 -350 -145 l-29 -6 5 -77 c5
-78 25 -135 57 -159 19 -15 109 -17 144 -4 13 5 54 33 92 62 l68 52 24 -29
c12 -16 23 -32 23 -36 0 -4 -17 -20 -37 -35 -21 -15 -40 -30 -43 -34 -15 -17
-139 -94 -188 -117 -78 -36 -189 -38 -244 -4 -50 31 -97 92 -114 149 -18 61
-18 204 1 277 19 74 94 220 141 274 40 47 125 114 196 155 82 47 188 62 290
41z m5202 -1442 c4 -10 -16 -86 -43 -168 -90 -272 -190 -605 -191 -632 0 -22
18 -4 55 54 19 30 68 87 108 127 150 152 288 187 348 90 19 -30 21 -45 16
-107 -5 -65 -38 -199 -86 -346 -36 -108 -41 -126 -47 -172 -9 -63 6 -68 73
-23 52 34 56 35 69 18 23 -30 15 -46 -46 -95 -134 -108 -255 -172 -302 -161
-75 19 -75 81 1 308 23 71 81 265 95 322 30 117 -14 148 -102 71 -131 -115
-230 -312 -300 -598 l-18 -75 -110 -6 c-60 -3 -111 -4 -113 -2 -5 3 24 112 59
228 10 33 24 87 30 119 7 33 16 69 21 80 10 25 65 227 149 545 73 277 73 288
-10 277 -44 -6 -49 -4 -55 15 -4 11 -3 24 2 29 4 4 53 19 108 35 55 15 134 39
175 55 91 34 107 35 114 12z m-5108 -471 c-10 -16 -17 -795 -8 -826 8 -28 12
-30 55 -29 40 1 47 -1 47 -18 0 -10 -8 -21 -17 -24 -18 -6 -156 -60 -180 -71
-10 -4 -13 8 -13 42 0 26 -3 45 -7 43 -5 -1 -35 -21 -67 -43 -53 -36 -66 -40
-121 -40 -111 0 -186 67 -221 198 -18 68 -18 125 2 200 20 79 36 109 87 165
76 82 194 115 284 77 19 -8 37 -15 39 -15 7 0 4 215 -4 227 -4 6 -28 13 -52
15 -71 5 -57 27 45 69 86 37 143 49 131 30z m5909 -15 c32 -14 35 -19 35 -55
0 -49 -21 -139 -67 -296 -61 -203 -83 -289 -83 -321 0 -108 129 -28 229 141
79 134 158 336 176 453 8 48 3 46 140 66 50 7 94 9 99 5 6 -5 -5 -56 -27 -126
-90 -292 -154 -542 -144 -567 9 -23 17 -21 77 24 l53 39 20 -25 c16 -21 18
-29 8 -47 -23 -42 -217 -180 -293 -209 -62 -23 -73 -23 -99 5 -27 29 -22 78
24 247 20 69 34 127 32 128 -2 2 -14 -16 -26 -40 -111 -220 -307 -377 -430
-345 -82 20 -105 91 -71 217 11 41 34 129 52 195 17 66 40 150 51 186 10 36
19 78 19 93 0 39 -34 34 -76 -11 l-35 -38 -19 24 c-11 13 -20 29 -20 35 0 12
61 68 145 133 39 30 171 103 187 103 5 0 24 -7 43 -14z m1005 -6 c11 -11 20
-28 20 -37 0 -22 -55 -222 -77 -281 -24 -65 -10 -60 35 12 127 200 264 316
375 316 40 0 53 -5 78 -29 26 -26 29 -36 29 -90 0 -35 -11 -97 -25 -147 -14
-48 -23 -89 -20 -92 7 -7 6 -8 61 83 64 107 174 217 250 251 100 44 192 19
209 -57 11 -47 -13 -172 -58 -311 -81 -244 -94 -305 -69 -330 11 -11 65 16 99
50 14 15 17 14 34 -7 11 -13 19 -26 19 -30 0 -22 -232 -197 -285 -214 -45 -15
-112 -7 -126 14 -22 35 -16 61 80 379 85 280 91 308 63 333 -30 27 -60 9 -136
-79 -129 -151 -190 -293 -260 -606 -6 -27 -9 -28 -74 -28 -37 -1 -86 -5 -110
-9 -34 -7 -45 -5 -49 5 -3 8 20 103 52 212 120 418 130 466 99 496 -22 22 -27
21 -72 -21 -136 -131 -242 -343 -288 -580 -9 -48 -20 -91 -23 -95 -3 -4 -42
-8 -86 -9 -44 -1 -93 -6 -110 -10 -16 -5 -33 -5 -38 0 -4 4 6 55 23 112 98
330 149 542 137 572 -9 24 -17 22 -61 -18 -22 -19 -43 -35 -48 -35 -5 0 -14
12 -20 26 -12 26 -9 30 57 91 39 35 103 86 143 114 108 74 138 83 172 49z
m-6590 -540 l0 -239 31 -35 c41 -47 84 -55 144 -26 83 40 85 47 85 255 0 202
0 201 -64 212 -29 4 -36 10 -36 28 0 19 7 23 53 29 28 3 76 6 106 6 l53 0 -5
-217 c-4 -120 -3 -238 1 -263 l7 -45 45 0 c34 0 45 -4 48 -17 2 -13 -8 -20
-40 -28 -24 -7 -67 -25 -97 -41 -30 -16 -58 -29 -63 -29 -4 0 -8 23 -8 50 0
28 -3 50 -8 50 -4 0 -19 -13 -34 -29 -41 -42 -95 -65 -158 -65 -68 0 -111 21
-142 71 -22 36 -23 48 -26 256 -4 208 -5 218 -25 232 -12 8 -34 15 -49 15 -23
0 -28 4 -28 23 0 22 6 24 73 34 39 5 87 10 105 11 l32 2 0 -240z"/>
<path d="M11432 14205 c-14 -30 -183 -288 -259 -394 -29 -41 -53 -80 -53 -87
0 -11 31 -14 154 -14 l153 0 7 46 c3 26 6 88 7 138 0 50 4 143 9 206 8 117 3
151 -18 105z"/>
<path d="M13087 14001 c-35 -22 -75 -71 -110 -131 -33 -58 -80 -201 -69 -212
9 -9 75 11 140 44 87 44 154 146 154 232 -1 40 -6 55 -23 68 -27 23 -57 23
-92 -1z"/>
<path d="M15080 14013 c-53 -19 -149 -160 -182 -266 -27 -88 -25 -100 15 -92
52 10 149 61 186 97 80 78 113 185 76 241 -17 27 -55 34 -95 20z"/>
<path d="M15106 13661 c-4 -5 3 -7 14 -4 23 6 26 13 6 13 -8 0 -17 -4 -20 -9z"/>
<path d="M15840 13980 c0 -5 0 -12 0 -15 0 -3 -6 -18 -15 -35 -17 -33 -18 -40
-6 -40 7 0 14 20 27 83 2 9 2 17 -1 17 -3 0 -5 -4 -5 -10z"/>
<path d="M15785 13971 c-18 -7 -17 -8 7 -13 19 -4 25 -1 21 9 -3 7 -6 13 -7
12 0 0 -10 -4 -21 -8z"/>
<path d="M15778 13823 c-10 -12 -12 -27 -7 -48 4 -18 8 -23 9 -12 3 22 5 28
15 50 11 25 1 31 -17 10z"/>
<path d="M11121 11948 c-93 -26 -133 -96 -134 -231 -1 -107 22 -173 78 -227
61 -59 166 -53 221 13 25 30 25 31 22 193 -3 147 -5 165 -24 191 -40 53 -105
77 -163 61z"/>
<path d="M11806 11960 c-16 -5 -40 -19 -54 -32 -29 -27 -66 -104 -56 -119 4
-7 50 -9 133 -7 l126 3 3 32 c4 42 -21 89 -61 113 -35 22 -47 23 -91 10z"/>
<path d="M13119 11712 c-143 -83 -169 -110 -169 -179 0 -59 37 -93 101 -93 42
0 55 5 85 33 41 37 53 80 54 195 0 82 -2 84 -71 44z"/>
<path d="M13975 9795 c-108 -11 -304 -43 -365 -61 -52 -14 -68 -212 -85 -1059
-2 -104 -4 -521 -5 -925 l-1 -735 503 0 c465 0 514 2 654 22 162 24 325 60
416 93 318 113 547 332 672 642 57 141 96 386 96 598 0 371 -93 673 -278 905
-75 94 -76 95 -162 168 -215 181 -476 294 -790 342 -144 22 -490 27 -655 10z"/>
<path d="M8664 8456 c-42 -19 -91 -84 -125 -166 -65 -161 -79 -433 -25 -512
18 -28 28 -33 68 -36 40 -3 51 1 82 28 76 67 144 274 151 460 5 119 -5 168
-46 211 -30 32 -57 36 -105 15z"/>
<path d="M10955 8441 c-17 -10 -39 -31 -50 -47 -10 -16 -24 -34 -31 -41 -15
-15 -72 -153 -80 -193 -6 -27 -4 -30 17 -30 42 0 142 55 194 106 55 54 56 56
63 132 3 41 1 57 -13 72 -23 25 -61 25 -100 1z"/>
<path d="M10965 6253 c-36 -9 -75 -44 -98 -86 -18 -36 -22 -58 -22 -147 0 -89
3 -112 22 -151 54 -109 165 -134 255 -59 l33 28 3 158 c3 134 1 164 -13 190
-30 56 -108 85 -180 67z"/>
<path d="M19112 5935 c4 -4 3 -14 -4 -22 -8 -11 -7 -12 6 -7 19 7 21 20 4 30
-7 4 -10 4 -6 -1z"/>
<path d="M15050 15340 c0 -5 5 -10 11 -10 5 0 7 5 4 10 -3 6 -8 10 -11 10 -2
0 -4 -4 -4 -10z"/>
<path d="M15575 15270 c3 -5 1 -10 -6 -10 -7 0 -9 -3 -6 -6 4 -4 12 -2 20 4 7
6 23 9 35 5 12 -3 22 -1 22 4 0 5 -16 10 -36 11 -23 2 -33 -1 -29 -8z"/>
<path d="M15658 15263 c7 -3 16 -2 19 1 4 3 -2 6 -13 5 -11 0 -14 -3 -6 -6z"/>
<path d="M15735 15240 c3 -5 11 -10 16 -10 6 0 7 5 4 10 -3 6 -11 10 -16 10
-6 0 -7 -4 -4 -10z"/>
<path d="M15774 15232 c3 -5 22 -9 43 -10 28 -1 34 1 23 8 -18 12 -73 13 -66
2z"/>
<path d="M15865 15223 c4 -8 -1 -13 -12 -13 -10 0 -25 -5 -33 -11 -11 -7 -1
-9 39 -5 29 2 56 8 60 11 3 4 -3 5 -14 3 -11 -2 -26 3 -33 12 -8 8 -11 9 -7 3z"/>
<path d="M15460 15210 c0 -5 11 -9 24 -8 14 1 22 6 20 10 -7 12 -44 10 -44 -2z"/>
<path d="M15525 15200 c3 -4 14 -10 25 -13 11 -3 18 -2 15 3 -3 4 -14 10 -25
13 -11 3 -18 2 -15 -3z"/>
<path d="M15638 15203 c7 -3 16 -2 19 1 4 3 -2 6 -13 5 -11 0 -14 -3 -6 -6z"/>
<path d="M15764 15198 c-4 -7 -3 -8 4 -4 7 4 12 2 12 -3 0 -6 5 -11 10 -11 15
0 12 17 -5 23 -8 4 -17 1 -21 -5z"/>
<path d="M15943 15193 c9 -2 23 -2 30 0 6 3 -1 5 -18 5 -16 0 -22 -2 -12 -5z"/>
<path d="M15588 15178 c6 -6 18 -8 28 -6 14 3 12 5 -9 10 -19 3 -25 2 -19 -4z"/>
<path d="M15640 15169 c0 -5 9 -9 20 -9 11 0 20 2 20 4 0 2 -9 6 -20 9 -11 3
-20 1 -20 -4z"/>
<path d="M14748 2523 c6 -2 18 -2 25 0 6 3 1 5 -13 5 -14 0 -19 -2 -12 -5z"/>
<path d="M14978 16263 c7 -3 16 -2 19 1 4 3 -2 6 -13 5 -11 0 -14 -3 -6 -6z"/>
<path d="M15438 16193 c7 -3 16 -2 19 1 4 3 -2 6 -13 5 -11 0 -14 -3 -6 -6z"/>
<path d="M15535 16170 c39 -11 75 -18 80 -16 13 4 -59 25 -110 31 -27 3 -17
-2 30 -15z"/>
<path d="M15655 16140 c70 -18 178 -40 182 -36 5 5 -168 46 -192 45 -13 -1
-10 -4 10 -9z"/>
<path d="M15078 15953 c7 -3 16 -2 19 1 4 3 -2 6 -13 5 -11 0 -14 -3 -6 -6z"/>
<path d="M15135 15940 c3 -5 11 -10 16 -10 6 0 7 5 4 10 -3 6 -11 10 -16 10
-6 0 -7 -4 -4 -10z"/>
<path d="M798 10915 c-3 -11 -9 -29 -13 -40 -6 -17 -5 -17 9 3 10 12 16 30 14
40 -3 15 -5 14 -10 -3z"/>
<path d="M637 10453 c-14 -50 -17 -73 -8 -73 4 0 11 19 15 41 7 43 2 65 -7 32z"/>
<path d="M561 10153 c0 -12 -4 -30 -7 -40 -5 -14 -4 -15 5 -7 7 6 11 24 8 40
-3 21 -4 23 -6 7z"/>
<path d="M502 9875 c0 -16 2 -22 5 -12 2 9 2 23 0 30 -3 6 -5 -1 -5 -18z"/>
<path d="M476 9749 c-18 -90 -30 -219 -19 -219 4 0 9 17 11 38 1 20 7 73 12
116 9 75 7 117 -4 65z"/>
<path d="M424 9298 c-5 -90 -7 -176 -3 -193 5 -22 7 -12 8 35 1 36 4 122 8
193 3 70 3 127 1 127 -3 0 -9 -73 -14 -162z"/>
<path d="M419 8799 c-4 -63 -3 -104 5 -232 5 -75 13 -140 19 -144 6 -4 8 3 4
18 -3 13 -9 103 -13 199 -6 160 -12 221 -15 159z"/>
<path d="M442 8380 c-1 -19 3 -53 7 -75 l9 -40 0 35 c1 19 -3 53 -7 75 l-9 40
0 -35z"/>
<path d="M467 8185 c13 -110 22 -141 17 -60 -4 44 -10 87 -15 95 -5 9 -6 -5
-2 -35z"/>
<path d="M542 7790 c0 -14 4 -38 8 -55 l8 -30 0 30 c0 17 -4 41 -8 55 l-8 25
0 -25z"/>
<path d="M580 7619 c0 -5 5 -7 10 -4 6 3 10 8 10 11 0 2 -4 4 -10 4 -5 0 -10
-5 -10 -11z"/>
<path d="M610 7496 c0 -9 5 -16 10 -16 6 0 10 4 10 9 0 6 -4 13 -10 16 -5 3
-10 -1 -10 -9z"/>
<path d="M631 7445 c0 -16 6 -43 14 -60 l14 -30 -6 40 c-3 22 -9 49 -14 60 -6
17 -8 15 -8 -10z"/>
<path d="M671 7304 c0 -11 3 -14 6 -6 3 7 2 16 -1 19 -3 4 -6 -2 -5 -13z"/>
<path d="M705 7198 c4 -13 11 -27 16 -33 5 -5 4 5 -2 23 -12 36 -24 44 -14 10z"/>
<path d="M756 7057 c3 -10 9 -15 12 -12 3 3 0 11 -7 18 -10 9 -11 8 -5 -6z"/>
<path d="M15733 1773 c9 -2 25 -2 35 0 9 3 1 5 -18 5 -19 0 -27 -2 -17 -5z"/>
<path d="M15689 1766 c-3 -3 -41 -9 -98 -15 -3 -1 0 -6 5 -11 10 -10 114 14
114 25 0 6 -15 7 -21 1z"/>
<path d="M15418 1693 c7 -3 16 -2 19 1 4 3 -2 6 -13 5 -11 0 -14 -3 -6 -6z"/>
<path d="M15178 1683 c6 -2 18 -2 25 0 6 3 1 5 -13 5 -14 0 -19 -2 -12 -5z"/>
<path d="M15328 1673 c7 -3 16 -2 19 1 4 3 -2 6 -13 5 -11 0 -14 -3 -6 -6z"/>
<path d="M15228 1653 c7 -3 16 -2 19 1 4 3 -2 6 -13 5 -11 0 -14 -3 -6 -6z"/>
<path d="M14830 1620 c0 -5 16 -10 36 -10 21 0 33 4 29 10 -3 6 -19 10 -36 10
-16 0 -29 -4 -29 -10z"/>
<path d="M14919 1625 c-1 -3 -2 -10 -3 -16 0 -6 -12 -17 -26 -24 -32 -18 -22
-18 75 0 122 22 156 36 73 30 -43 -4 -68 -2 -68 5 0 10 -49 15 -51 5z"/>
<path d="M15118 1623 c7 -3 16 -2 19 1 4 3 -2 6 -13 5 -11 0 -14 -3 -6 -6z"/>
<path d="M14828 1563 c6 -2 18 -2 25 0 6 3 1 5 -13 5 -14 0 -19 -2 -12 -5z"/>
<path d="M14788 1553 c7 -3 16 -2 19 1 4 3 -2 6 -13 5 -11 0 -14 -3 -6 -6z"/>
<path d="M14688 1533 c6 -2 18 -2 25 0 6 3 1 5 -13 5 -14 0 -19 -2 -12 -5z"/>
<path d="M14598 1513 c6 -2 18 -2 25 0 6 3 1 5 -13 5 -14 0 -19 -2 -12 -5z"/>
<path d="M14173 1443 c9 -2 23 -2 30 0 6 3 -1 5 -18 5 -16 0 -22 -2 -12 -5z"/>
<path d="M14030 1430 l-25 -8 25 0 c14 -1 43 3 65 7 l40 9 -40 0 c-22 0 -51
-4 -65 -8z"/>
</g>
</svg>
